<mxfile host="app.diagrams.net" modified="2021-07-28T11:38:16.843Z" agent="5.0 (Windows NT 10.0; Win64; x64) AppleWebKit/537.36 (KHTML, like Gecko) Chrome/86.0.4240.183 Safari/537.36" etag="ibvxeYOtgrzdqtfts-3r" version="14.9.0" type="github">
  <diagram id="Bo_jNrE_95QqJOiNWw3U" name="第 1 页">
    <mxGraphModel dx="1422" dy="762" grid="1" gridSize="10" guides="1" tooltips="1" connect="1" arrows="1" fold="1" page="1" pageScale="1" pageWidth="1169" pageHeight="827" math="0" shadow="0">
      <root>
        <mxCell id="0" />
        <mxCell id="1" parent="0" />
        <mxCell id="EnjzS-1P2QAIcsNXODQ2-40" value="" style="rounded=0;whiteSpace=wrap;html=1;" vertex="1" parent="1">
          <mxGeometry x="39" width="1161" height="710" as="geometry" />
        </mxCell>
        <mxCell id="EnjzS-1P2QAIcsNXODQ2-4" value="&lt;font style=&quot;font-size: 16px&quot;&gt;&lt;b&gt;&lt;br&gt;Studio&lt;/b&gt;&lt;/font&gt;" style="rounded=0;whiteSpace=wrap;html=1;fillColor=#dae8fc;strokeColor=#6c8ebf;horizontal=1;align=center;verticalAlign=top;" vertex="1" parent="1">
          <mxGeometry x="122" y="20" width="310" height="270" as="geometry" />
        </mxCell>
        <mxCell id="EnjzS-1P2QAIcsNXODQ2-5" value="&lt;font size=&quot;1&quot;&gt;&lt;b style=&quot;font-size: 16px&quot;&gt;&lt;br&gt;Web 前端&lt;/b&gt;&lt;/font&gt;" style="rounded=0;whiteSpace=wrap;html=1;fillColor=#e1d5e7;strokeColor=#9673a6;verticalAlign=top;" vertex="1" parent="1">
          <mxGeometry x="125" y="390" width="305" height="270" as="geometry" />
        </mxCell>
        <mxCell id="EnjzS-1P2QAIcsNXODQ2-6" value="&lt;b&gt;&lt;font style=&quot;font-size: 16px&quot;&gt;Remote Server&lt;/font&gt;&lt;/b&gt;" style="rounded=0;whiteSpace=wrap;html=1;fillColor=#f8cecc;strokeColor=#b85450;verticalAlign=top;" vertex="1" parent="1">
          <mxGeometry x="620" y="390" width="290" height="270" as="geometry" />
        </mxCell>
        <mxCell id="EnjzS-1P2QAIcsNXODQ2-10" value="" style="endArrow=classic;startArrow=classic;html=1;entryX=0;entryY=0.137;entryDx=0;entryDy=0;entryPerimeter=0;" edge="1" parent="1" target="EnjzS-1P2QAIcsNXODQ2-6">
          <mxGeometry width="50" height="50" relative="1" as="geometry">
            <mxPoint x="427.9" y="425.06" as="sourcePoint" />
            <mxPoint x="619.9999999999999" y="420.00000000000006" as="targetPoint" />
          </mxGeometry>
        </mxCell>
        <mxCell id="EnjzS-1P2QAIcsNXODQ2-22" value="登录" style="edgeLabel;html=1;align=center;verticalAlign=middle;resizable=0;points=[];" vertex="1" connectable="0" parent="EnjzS-1P2QAIcsNXODQ2-10">
          <mxGeometry x="-0.2909" relative="1" as="geometry">
            <mxPoint x="24" y="-11" as="offset" />
          </mxGeometry>
        </mxCell>
        <mxCell id="EnjzS-1P2QAIcsNXODQ2-23" value="" style="endArrow=classic;startArrow=classic;html=1;entryX=-0.005;entryY=0.419;entryDx=0;entryDy=0;entryPerimeter=0;" edge="1" parent="1" target="EnjzS-1P2QAIcsNXODQ2-67">
          <mxGeometry width="50" height="50" relative="1" as="geometry">
            <mxPoint x="430.0000000000001" y="131.30999999999995" as="sourcePoint" />
            <mxPoint x="623.0000000000001" y="130" as="targetPoint" />
          </mxGeometry>
        </mxCell>
        <mxCell id="EnjzS-1P2QAIcsNXODQ2-43" value="获取所有异常样本" style="edgeLabel;html=1;align=center;verticalAlign=middle;resizable=0;points=[];" vertex="1" connectable="0" parent="EnjzS-1P2QAIcsNXODQ2-23">
          <mxGeometry x="-0.1604" y="3" relative="1" as="geometry">
            <mxPoint x="9" y="-8" as="offset" />
          </mxGeometry>
        </mxCell>
        <mxCell id="EnjzS-1P2QAIcsNXODQ2-30" value="" style="endArrow=classic;startArrow=classic;html=1;" edge="1" parent="1">
          <mxGeometry width="50" height="50" relative="1" as="geometry">
            <mxPoint x="432.0000000000001" y="461.30999999999995" as="sourcePoint" />
            <mxPoint x="618" y="461" as="targetPoint" />
          </mxGeometry>
        </mxCell>
        <mxCell id="EnjzS-1P2QAIcsNXODQ2-36" value="获取所有异常样本" style="edgeLabel;html=1;align=center;verticalAlign=middle;resizable=0;points=[];" vertex="1" connectable="0" parent="EnjzS-1P2QAIcsNXODQ2-30">
          <mxGeometry x="-0.1501" y="2" relative="1" as="geometry">
            <mxPoint x="6" y="-9" as="offset" />
          </mxGeometry>
        </mxCell>
        <mxCell id="EnjzS-1P2QAIcsNXODQ2-31" value="" style="endArrow=classic;startArrow=classic;html=1;" edge="1" parent="1">
          <mxGeometry width="50" height="50" relative="1" as="geometry">
            <mxPoint x="430.0000000000001" y="501.30999999999995" as="sourcePoint" />
            <mxPoint x="623" y="500" as="targetPoint" />
          </mxGeometry>
        </mxCell>
        <mxCell id="EnjzS-1P2QAIcsNXODQ2-41" value="修改指定异常样本" style="edgeLabel;html=1;align=center;verticalAlign=middle;resizable=0;points=[];" vertex="1" connectable="0" parent="EnjzS-1P2QAIcsNXODQ2-31">
          <mxGeometry x="-0.2227" y="1" relative="1" as="geometry">
            <mxPoint x="15" y="-10" as="offset" />
          </mxGeometry>
        </mxCell>
        <mxCell id="EnjzS-1P2QAIcsNXODQ2-32" value="" style="endArrow=classic;startArrow=classic;html=1;entryX=0.003;entryY=0.625;entryDx=0;entryDy=0;entryPerimeter=0;" edge="1" parent="1">
          <mxGeometry width="50" height="50" relative="1" as="geometry">
            <mxPoint x="430.0000000000001" y="541.31" as="sourcePoint" />
            <mxPoint x="623.0000000000001" y="540" as="targetPoint" />
          </mxGeometry>
        </mxCell>
        <mxCell id="EnjzS-1P2QAIcsNXODQ2-42" value="添加异常信息" style="edgeLabel;html=1;align=center;verticalAlign=middle;resizable=0;points=[];" vertex="1" connectable="0" parent="EnjzS-1P2QAIcsNXODQ2-32">
          <mxGeometry x="-0.1917" relative="1" as="geometry">
            <mxPoint x="2" y="-11" as="offset" />
          </mxGeometry>
        </mxCell>
        <mxCell id="EnjzS-1P2QAIcsNXODQ2-37" value="&lt;b&gt;&lt;font style=&quot;font-size: 16px&quot;&gt;Remote DB&lt;/font&gt;&lt;/b&gt;" style="ellipse;whiteSpace=wrap;html=1;aspect=fixed;fillColor=#fff2cc;strokeColor=#d6b656;" vertex="1" parent="1">
          <mxGeometry x="1050" y="450" width="150" height="150" as="geometry" />
        </mxCell>
        <mxCell id="EnjzS-1P2QAIcsNXODQ2-38" value="访问数据库" style="endArrow=classic;startArrow=classic;html=1;entryX=0;entryY=0.5;entryDx=0;entryDy=0;" edge="1" parent="1" target="EnjzS-1P2QAIcsNXODQ2-37">
          <mxGeometry x="0.0758" y="11" width="50" height="50" relative="1" as="geometry">
            <mxPoint x="910" y="524.5" as="sourcePoint" />
            <mxPoint x="1015.96" y="524.56" as="targetPoint" />
            <mxPoint as="offset" />
          </mxGeometry>
        </mxCell>
        <mxCell id="EnjzS-1P2QAIcsNXODQ2-48" value="" style="endArrow=classic;html=1;exitX=0.5;exitY=0;exitDx=0;exitDy=0;" edge="1" parent="1" source="EnjzS-1P2QAIcsNXODQ2-6">
          <mxGeometry width="50" height="50" relative="1" as="geometry">
            <mxPoint x="790" y="300" as="sourcePoint" />
            <mxPoint x="765" y="260" as="targetPoint" />
          </mxGeometry>
        </mxCell>
        <mxCell id="EnjzS-1P2QAIcsNXODQ2-49" value="同步" style="edgeLabel;html=1;align=center;verticalAlign=middle;resizable=0;points=[];" vertex="1" connectable="0" parent="EnjzS-1P2QAIcsNXODQ2-48">
          <mxGeometry x="-0.2162" y="-1" relative="1" as="geometry">
            <mxPoint as="offset" />
          </mxGeometry>
        </mxCell>
        <mxCell id="EnjzS-1P2QAIcsNXODQ2-51" value="维护人员" style="shape=umlActor;verticalLabelPosition=bottom;verticalAlign=top;html=1;outlineConnect=0;" vertex="1" parent="1">
          <mxGeometry x="170" y="414" width="30" height="60" as="geometry" />
        </mxCell>
        <mxCell id="EnjzS-1P2QAIcsNXODQ2-52" value="用户" style="shape=umlActor;verticalLabelPosition=bottom;verticalAlign=top;html=1;outlineConnect=0;" vertex="1" parent="1">
          <mxGeometry x="160" y="40" width="30" height="60" as="geometry" />
        </mxCell>
        <mxCell id="EnjzS-1P2QAIcsNXODQ2-54" value="Task" style="swimlane;fontStyle=0;childLayout=stackLayout;horizontal=1;startSize=26;horizontalStack=0;resizeParent=1;resizeParentMax=0;resizeLast=0;collapsible=1;marginBottom=0;" vertex="1" parent="1">
          <mxGeometry x="220" y="90" width="140" height="170" as="geometry" />
        </mxCell>
        <mxCell id="EnjzS-1P2QAIcsNXODQ2-55" value="拉取所有异常样本" style="text;strokeColor=none;fillColor=none;align=left;verticalAlign=top;spacingLeft=4;spacingRight=4;overflow=hidden;rotatable=0;points=[[0,0.5],[1,0.5]];portConstraint=eastwest;" vertex="1" parent="EnjzS-1P2QAIcsNXODQ2-54">
          <mxGeometry y="26" width="140" height="26" as="geometry" />
        </mxCell>
        <mxCell id="EnjzS-1P2QAIcsNXODQ2-56" value="过滤特定异常样本" style="text;strokeColor=none;fillColor=none;align=left;verticalAlign=top;spacingLeft=4;spacingRight=4;overflow=hidden;rotatable=0;points=[[0,0.5],[1,0.5]];portConstraint=eastwest;" vertex="1" parent="EnjzS-1P2QAIcsNXODQ2-54">
          <mxGeometry y="52" width="140" height="26" as="geometry" />
        </mxCell>
        <mxCell id="EnjzS-1P2QAIcsNXODQ2-57" value="监听 log 日志&#xa;&#xa;打印异常解决方案&#xa;&#xa;同步远端数据库" style="text;strokeColor=none;fillColor=none;align=left;verticalAlign=top;spacingLeft=4;spacingRight=4;overflow=hidden;rotatable=0;points=[[0,0.5],[1,0.5]];portConstraint=eastwest;" vertex="1" parent="EnjzS-1P2QAIcsNXODQ2-54">
          <mxGeometry y="78" width="140" height="92" as="geometry" />
        </mxCell>
        <mxCell id="EnjzS-1P2QAIcsNXODQ2-59" value="Task" style="swimlane;fontStyle=0;childLayout=stackLayout;horizontal=1;startSize=26;horizontalStack=0;resizeParent=1;resizeParentMax=0;resizeLast=0;collapsible=1;marginBottom=0;align=center;verticalAlign=top;" vertex="1" parent="1">
          <mxGeometry x="240" y="450" width="140" height="200" as="geometry" />
        </mxCell>
        <mxCell id="EnjzS-1P2QAIcsNXODQ2-60" value="展示异常样本" style="text;strokeColor=none;fillColor=none;align=left;verticalAlign=top;spacingLeft=4;spacingRight=4;overflow=hidden;rotatable=0;points=[[0,0.5],[1,0.5]];portConstraint=eastwest;" vertex="1" parent="EnjzS-1P2QAIcsNXODQ2-59">
          <mxGeometry y="26" width="140" height="26" as="geometry" />
        </mxCell>
        <mxCell id="EnjzS-1P2QAIcsNXODQ2-61" value="新增异常样本" style="text;strokeColor=none;fillColor=none;align=left;verticalAlign=top;spacingLeft=4;spacingRight=4;overflow=hidden;rotatable=0;points=[[0,0.5],[1,0.5]];portConstraint=eastwest;" vertex="1" parent="EnjzS-1P2QAIcsNXODQ2-59">
          <mxGeometry y="52" width="140" height="26" as="geometry" />
        </mxCell>
        <mxCell id="EnjzS-1P2QAIcsNXODQ2-62" value="修改异常样本&#xa;&#xa;过滤异常样本&#xa;&#xa;新增维护记录&#xa;&#xa;展示所有维护记录" style="text;strokeColor=none;fillColor=none;align=left;verticalAlign=top;spacingLeft=4;spacingRight=4;overflow=hidden;rotatable=0;points=[[0,0.5],[1,0.5]];portConstraint=eastwest;" vertex="1" parent="EnjzS-1P2QAIcsNXODQ2-59">
          <mxGeometry y="78" width="140" height="122" as="geometry" />
        </mxCell>
        <mxCell id="EnjzS-1P2QAIcsNXODQ2-63" value="Task" style="swimlane;fontStyle=0;childLayout=stackLayout;horizontal=1;startSize=26;horizontalStack=0;resizeParent=1;resizeParentMax=0;resizeLast=0;collapsible=1;marginBottom=0;align=center;verticalAlign=top;" vertex="1" parent="1">
          <mxGeometry x="672.5" y="440" width="185" height="200" as="geometry" />
        </mxCell>
        <mxCell id="EnjzS-1P2QAIcsNXODQ2-64" value="获取数据库中所有异常样本" style="text;strokeColor=none;fillColor=none;align=left;verticalAlign=top;spacingLeft=4;spacingRight=4;overflow=hidden;rotatable=0;points=[[0,0.5],[1,0.5]];portConstraint=eastwest;" vertex="1" parent="EnjzS-1P2QAIcsNXODQ2-63">
          <mxGeometry y="26" width="185" height="26" as="geometry" />
        </mxCell>
        <mxCell id="EnjzS-1P2QAIcsNXODQ2-65" value="修改数据库中的指定样本" style="text;strokeColor=none;fillColor=none;align=left;verticalAlign=top;spacingLeft=4;spacingRight=4;overflow=hidden;rotatable=0;points=[[0,0.5],[1,0.5]];portConstraint=eastwest;" vertex="1" parent="EnjzS-1P2QAIcsNXODQ2-63">
          <mxGeometry y="52" width="185" height="26" as="geometry" />
        </mxCell>
        <mxCell id="EnjzS-1P2QAIcsNXODQ2-66" value="插入异常样本&#xa;&#xa;获取所有用户信息&#xa;&#xa;插入维护记录&#xa;&#xa;获取所有维护记录" style="text;strokeColor=none;fillColor=none;align=left;verticalAlign=top;spacingLeft=4;spacingRight=4;overflow=hidden;rotatable=0;points=[[0,0.5],[1,0.5]];portConstraint=eastwest;" vertex="1" parent="EnjzS-1P2QAIcsNXODQ2-63">
          <mxGeometry y="78" width="185" height="122" as="geometry" />
        </mxCell>
        <mxCell id="EnjzS-1P2QAIcsNXODQ2-67" value="&lt;b&gt;&lt;font style=&quot;font-size: 16px&quot;&gt;Local DB&lt;/font&gt;&lt;/b&gt;" style="ellipse;whiteSpace=wrap;html=1;aspect=fixed;fillColor=#fff2cc;strokeColor=#d6b656;" vertex="1" parent="1">
          <mxGeometry x="660" y="40" width="210" height="210" as="geometry" />
        </mxCell>
      </root>
    </mxGraphModel>
  </diagram>
</mxfile>
